<svg xmlns="http://www.w3.org/2000/svg" width="21.209" height="25.593" viewBox="0 0 21.209 25.593">
  <g id="Group_22" data-name="Group 22" transform="translate(-100.348 -300.831)">
    <g id="Group_21" data-name="Group 21">
      <g id="Group_17" data-name="Group 17">
        <path id="Path_15" data-name="Path 15" d="M121.557,306.969v-.054h0a.623.623,0,0,0-.164-.329h0a.054.054,0,0,0-.055-.055h0l-2.74-2.74-2.74-2.74h0L115.8,301h0c-.11-.055-.219-.165-.329-.165H101.116a.75.75,0,0,0-.768.768v24.058a.749.749,0,0,0,.768.767h19.619a.748.748,0,0,0,.767-.767V307.079C121.557,307.024,121.557,307.024,121.557,306.969Zm-2.74-.712h-2.795v-2.795l1.37,1.425Zm1.151,18.578h-18.03V302.366h12.55v4.713a.749.749,0,0,0,.767.767h4.713Z" fill="#969696"/>
      </g>
      <g id="Group_18" data-name="Group 18">
        <path id="Path_16" data-name="Path 16" d="M104.514,311.518a.749.749,0,0,0,.767.767H116.57a.767.767,0,1,0,0-1.534H105.281A.749.749,0,0,0,104.514,311.518Z" fill="#969696"/>
      </g>
      <g id="Group_19" data-name="Group 19">
        <path id="Path_17" data-name="Path 17" d="M116.57,315.573H105.281a.768.768,0,0,0,0,1.535H116.57a.749.749,0,0,0,.767-.767A.719.719,0,0,0,116.57,315.573Z" fill="#969696"/>
      </g>
      <g id="Group_20" data-name="Group 20">
        <path id="Path_18" data-name="Path 18" d="M116.57,320.4H105.281a.768.768,0,0,0,0,1.535H116.57a.768.768,0,0,0,0-1.535Z" fill="#969696"/>
      </g>
    </g>
  </g>
</svg>
