<svg xmlns="http://www.w3.org/2000/svg" width="28.863" height="24.95" viewBox="0 0 28.863 24.95">
  <g id="Group_26" data-name="Group 26" transform="translate(-97.958 -441.353)">
    <g id="Group_25" data-name="Group 25">
      <path id="Path_20" data-name="Path 20" d="M126.226,462.835l-5-5-.449.447-2.608-2.609a9.019,9.019,0,1,0-1.979,1.979l2.61,2.609-.446.445,5,5a2.032,2.032,0,1,0,2.874-2.872Zm-10.1-7.228a7.41,7.41,0,1,1,0-10.478A7.418,7.418,0,0,1,116.125,455.607Z" fill="#969696"/>
      <path id="Path_21" data-name="Path 21" d="M97.958,456.365l1.113,1.406,3.264-2.581a9.688,9.688,0,0,1-.751-1.693Z" fill="#969696"/>
      <path id="Path_22" data-name="Path 22" d="M123.911,451.245l1.221-5.748-1.754-.373-.869,4.088-1.924-.3a9.855,9.855,0,0,1,.1,1.832Z" fill="#969696"/>
      <path id="Path_23" data-name="Path 23" d="M117.033,447.774l-2.873-.451-4.173,5.529-3.17-4.116-2.589,2.066a6.687,6.687,0,0,0,.576,2.315l1.645-1.311L110,456.423l5.1-6.75,2.443.383A6.6,6.6,0,0,0,117.033,447.774Z" fill="#969696"/>
    </g>
  </g>
</svg>
