<svg xmlns="http://www.w3.org/2000/svg" width="27.892" height="31.96" viewBox="0 0 27.892 31.96">
  <g id="Group_7" data-name="Group 7" transform="translate(-1646.847 -78.517)">
    <g id="Group_6" data-name="Group 6">
      <path id="Path_11" data-name="Path 11" d="M1658.178,82.333a10.462,10.462,0,0,0-7.844,10.13v6.972a1.163,1.163,0,0,1-1.161,1.163,2.327,2.327,0,0,0-2.326,2.325v1.745a.579.579,0,0,0,.583.579h26.727a.583.583,0,0,0,.582-.579v-1.745a2.328,2.328,0,0,0-2.325-2.325,1.159,1.159,0,0,1-1.161-1.163V92.463a10.463,10.463,0,0,0-7.845-10.13v-1.2a2.615,2.615,0,1,0-5.23,0Zm-1.452,24.076h8.135a4.068,4.068,0,1,1-8.135,0Z" fill="#969696" fill-rule="evenodd"/>
    </g>
  </g>
</svg>
