<svg xmlns="http://www.w3.org/2000/svg" width="13.671" height="19.049" viewBox="0 0 13.671 19.049">
  <g id="Group_182" data-name="Group 182" transform="translate(-199.894 -663.392)">
    <path id="Path_245" data-name="Path 245" d="M211.516,665.361a6.837,6.837,0,0,0-4.868-1.969,6.847,6.847,0,0,0-4.9,11.536,4.309,4.309,0,0,1,1.182,2.758.844.844,0,0,0,.141,1.66h7.316a.844.844,0,0,0,.112-1.66,4.138,4.138,0,0,1,1.182-2.758A6.81,6.81,0,0,0,211.516,665.361Z" fill="#05d672"/>
    <path id="Path_246" data-name="Path 246" d="M209.8,681.6a.872.872,0,0,0-.844-.844H204.51a.871.871,0,0,0-.844.844.844.844,0,0,0,.844.844h4.446A.844.844,0,0,0,209.8,681.6Z" fill="#05d672"/>
  </g>
</svg>
