<svg xmlns="http://www.w3.org/2000/svg" width="22.222" height="22.222" viewBox="0 0 22.222 22.222">
  <path id="Path_59" data-name="Path 59" d="M1263.029,151.123V147.84h-2.189v1.1h-2.188v-1.1H1249.9v1.1h-2.188v-1.1h-2.189v3.283Zm0,2.188h-17.508v10.942h17.508Zm-2.189-7.659h2.189a2.189,2.189,0,0,1,2.188,2.188v16.413a2.189,2.189,0,0,1-2.188,2.189h-17.508a2.189,2.189,0,0,1-2.188-2.189V147.84a2.189,2.189,0,0,1,2.188-2.188h2.189v-1.094h2.188v1.094h8.754v-1.094h2.188Zm-9.848,12.036H1248.8V155.5h2.188Zm4.377,0h-2.188V155.5h2.188Zm4.377,0h-2.188V155.5h2.188Zm-8.754,4.377H1248.8v-2.188h2.188Zm4.377,0h-2.188v-2.188h2.188Z" transform="translate(-1243.164 -144.389)" fill="#969696" stroke="#fff" stroke-miterlimit="10" stroke-width="0.338" fill-rule="evenodd"/>
</svg>
