<svg xmlns="http://www.w3.org/2000/svg" width="38.891" height="26.967" viewBox="0 0 38.891 26.967">
  <path id="Path_12" data-name="Path 12" d="M1599.159,90.9h-29.9a1.578,1.578,0,0,1-1.5-1.494v-3a4.617,4.617,0,0,1,4.43-4.479c9.988-.062,19.975,0,29.963,0a4.615,4.615,0,0,1,4.481,4.429c.037,6,0,12,0,18a4.618,4.618,0,0,1-4.429,4.48c-9.989.061-19.976,0-29.964,0a4.615,4.615,0,0,1-4.481-4.48V95.391a1.559,1.559,0,0,1,1.847-1.453,1.585,1.585,0,0,1,1.143,1.453c0,3-.056,6.005,0,9.007a1.55,1.55,0,0,0,1.458,1.459q14.986.277,29.978,0a1.55,1.55,0,0,0,1.458-1.459q.166-9.006,0-18.015a1.549,1.549,0,0,0-1.458-1.458q-14.986-.279-29.978,0a1.54,1.54,0,0,0-1.458,1.5v1.49h28.408a2.051,2.051,0,0,1,1.131.516A1.552,1.552,0,0,1,1599.159,90.9Zm-3.768,6.943a2.99,2.99,0,1,1-2.212-.979A2.987,2.987,0,0,1,1595.391,97.848Z" transform="translate(-1567.761 -81.907)" fill="#969696"/>
</svg>
