<svg xmlns="http://www.w3.org/2000/svg" width="24.468" height="24.467" viewBox="0 0 24.468 24.467">
  <path id="Path_14" data-name="Path 14" d="M111.369,247.265a.764.764,0,0,1,.764.7h0v7a.764.764,0,0,1-.764.7h-9.94a.764.764,0,0,1-.765-.7h0v-7a.764.764,0,0,1,.765-.7Zm13-6.117a.765.765,0,0,1,.765.764h0v13a.765.765,0,0,1-.765.764h-9.94a.764.764,0,0,1-.764-.764h0v-13a.764.764,0,0,1,.764-.764ZM110.6,248.664h-8.411v5.612H110.6Zm13-5.987h-8.411v11.469H123.6Zm-12.234-11.469a.764.764,0,0,1,.764.764h0v13a.764.764,0,0,1-.764.764h-9.94a.764.764,0,0,1-.765-.764h0v-13a.764.764,0,0,1,.765-.764Zm-.765,1.529h-8.411v11.469H110.6Zm13.763-1.529a.765.765,0,0,1,.765.7h0v7a.766.766,0,0,1-.765.7h-9.94a.765.765,0,0,1-.764-.7h0v-7a.764.764,0,0,1,.764-.7Zm-.764,1.4h-8.411v5.612H123.6Z" transform="translate(-100.664 -231.208)" fill="#969696"/>
</svg>
