<svg xmlns="http://www.w3.org/2000/svg" width="15.314" height="23.189" viewBox="0 0 15.314 23.189">
  <g id="Group_78" data-name="Group 78" transform="translate(824.743 -1975.425)">
    <g id="Group_77" data-name="Group 77">
      <path id="Path_58" data-name="Path 58" d="M-818.245,1995.02a.629.629,0,0,0-.636.635v.7h-5.4a.464.464,0,0,0-.464.464.463.463,0,0,0,.464.463h5.4v.7a.636.636,0,0,0,.636.635h2.319a.636.636,0,0,0,.635-.635v-.7h5.4a.463.463,0,0,0,.464-.463.464.464,0,0,0-.464-.464h-5.4v-.7a.628.628,0,0,0-.635-.635h-.7v-1.258c3.959-.111,7-1.61,7-3.51v-11.307c0-1.974-3.277-3.52-7.462-3.52s-7.462,1.546-7.462,3.52v11.307c0,1.9,3.039,3.4,7,3.51v1.258Zm1.159-12.555c2.071,0,4.961-.448,6.535-1.795v2.044c0,1.226-2.684,2.591-6.536,2.591s-6.519-1.358-6.534-2.581v-2.054C-822.037,1982.026-819.183,1982.465-817.086,1982.465Zm-6.535,1.972c1.261,1.079,3.686,1.8,6.534,1.8s5.276-.717,6.536-1.8v2.047c0,1.226-2.684,2.591-6.536,2.591s-6.519-1.358-6.534-2.581Zm6.535-8.085c3.851,0,6.535,1.367,6.535,2.593s-2.684,2.593-6.535,2.593-6.535-1.367-6.535-2.593S-820.937,1976.352-817.086,1976.352Zm-6.535,13.9v-2.046c1.261,1.079,3.686,1.8,6.534,1.8s5.276-.718,6.536-1.8v2.048c0,1.226-2.684,2.593-6.535,2.593S-823.621,1991.478-823.621,1990.252Zm7.4,7.435h-1.735v-1.74h1.735Z" fill="#05d672"/>
      <circle id="Ellipse_27" data-name="Ellipse 27" cx="0.464" cy="0.464" r="0.464" transform="translate(-817.549 1983.489)" fill="#05d672"/>
      <circle id="Ellipse_28" data-name="Ellipse 28" cx="0.464" cy="0.464" r="0.464" transform="translate(-820.122 1983.25)" fill="#05d672"/>
      <circle id="Ellipse_29" data-name="Ellipse 29" cx="0.464" cy="0.464" r="0.464" transform="translate(-814.977 1983.25)" fill="#05d672"/>
      <circle id="Ellipse_30" data-name="Ellipse 30" cx="0.464" cy="0.464" r="0.464" transform="translate(-817.549 1987.26)" fill="#05d672"/>
      <circle id="Ellipse_31" data-name="Ellipse 31" cx="0.464" cy="0.464" r="0.464" transform="translate(-820.122 1987.021)" fill="#05d672"/>
      <circle id="Ellipse_32" data-name="Ellipse 32" cx="0.464" cy="0.464" r="0.464" transform="translate(-814.977 1987.021)" fill="#05d672"/>
      <circle id="Ellipse_33" data-name="Ellipse 33" cx="0.464" cy="0.464" r="0.464" transform="translate(-817.549 1991.031)" fill="#05d672"/>
      <circle id="Ellipse_34" data-name="Ellipse 34" cx="0.464" cy="0.464" r="0.464" transform="translate(-820.122 1990.792)" fill="#05d672"/>
      <circle id="Ellipse_35" data-name="Ellipse 35" cx="0.464" cy="0.464" r="0.464" transform="translate(-814.977 1990.792)" fill="#05d672"/>
    </g>
  </g>
</svg>
