<svg xmlns="http://www.w3.org/2000/svg" width="21.201" height="7.486" viewBox="0 0 21.201 7.486">
  <g id="Group_35" data-name="Group 35" transform="translate(611.865 -2586.627)">
    <path id="Path_28" data-name="Path 28" d="M-608.122,2587.627a2.723,2.723,0,0,1,1.05.209,2.722,2.722,0,0,1,.89.595,2.716,2.716,0,0,1,.594.89,2.7,2.7,0,0,1,.209,1.049,2.7,2.7,0,0,1-.209,1.05,2.713,2.713,0,0,1-.594.89,2.72,2.72,0,0,1-.89.594,2.7,2.7,0,0,1-1.05.209,2.7,2.7,0,0,1-1.049-.209,2.719,2.719,0,0,1-.89-.594,2.716,2.716,0,0,1-.6-.89,2.721,2.721,0,0,1-.209-1.05,2.72,2.72,0,0,1,.209-1.049,2.718,2.718,0,0,1,.6-.89,2.721,2.721,0,0,1,.89-.595A2.722,2.722,0,0,1-608.122,2587.627Z" fill="none" stroke="#05d672" stroke-miterlimit="10" stroke-width="2"/>
    <path id="Path_29" data-name="Path 29" d="M-594.407,2587.627a2.723,2.723,0,0,1,1.05.209,2.733,2.733,0,0,1,.89.595,2.717,2.717,0,0,1,.594.89,2.7,2.7,0,0,1,.209,1.049,2.7,2.7,0,0,1-.209,1.05,2.715,2.715,0,0,1-.594.89,2.73,2.73,0,0,1-.89.594,2.7,2.7,0,0,1-1.05.209,2.7,2.7,0,0,1-1.049-.209,2.709,2.709,0,0,1-.89-.594,2.7,2.7,0,0,1-.595-.89,2.72,2.72,0,0,1-.209-1.05,2.719,2.719,0,0,1,.209-1.049,2.7,2.7,0,0,1,.595-.89,2.711,2.711,0,0,1,.89-.595A2.718,2.718,0,0,1-594.407,2587.627Z" fill="none" stroke="#05d672" stroke-miterlimit="10" stroke-width="2"/>
  </g>
</svg>
