<svg xmlns="http://www.w3.org/2000/svg" width="16.152" height="15.775" viewBox="0 0 16.152 15.775">
  <g id="Group_28" data-name="Group 28" transform="translate(-1086.987 -148.064)">
    <path id="Path_25" data-name="Path 25" d="M1090.971,154.579l3.392,3.553v-9.4a.673.673,0,1,1,1.346,0v9.422l3.472-3.58a.667.667,0,0,1,.97.915l-4.631,4.792h0c-.027.027-.054.053-.08.053l-.027.027a.618.618,0,0,1-.377.108h-.135c-.027,0-.081-.027-.108-.027a.026.026,0,0,1-.026-.027c-.027-.027-.054-.027-.081-.054a.026.026,0,0,1-.027-.027c-.027-.026-.054-.026-.054-.053h0l-4.6-4.792a.666.666,0,0,1,.969-.915Zm-3.311,9.26h14.806a.673.673,0,1,0,0-1.346H1087.66a.673.673,0,0,0,0,1.346Z" fill="#006bff"/>
  </g>
</svg>
