<svg xmlns="http://www.w3.org/2000/svg" width="16.153" height="15.776" viewBox="0 0 16.153 15.776">
  <g id="Group_74" data-name="Group 74" transform="translate(-1499.595 -566.629)">
    <path id="Path_42" data-name="Path 42" d="M1503.58,573.144l3.392,3.554v-9.4a.673.673,0,0,1,1.346,0l-.172,9.423,3.644-3.581a.666.666,0,0,1,.969.915l-4.63,4.792h0c-.027.027-.054.054-.081.054l-.027.027a.614.614,0,0,1-.376.108h-.135c-.027,0-.081-.027-.108-.027a.026.026,0,0,1-.027-.027c-.027-.027-.053-.027-.08-.054a.026.026,0,0,1-.027-.027c-.027-.027-.054-.027-.054-.054h0l-4.6-4.792a.667.667,0,0,1,.97-.915Zm-3.312,9.261h14.807a.673.673,0,1,0,0-1.346h-14.807a.673.673,0,0,0,0,1.346Z" fill="#05d672"/>
  </g>
</svg>
