<svg xmlns="http://www.w3.org/2000/svg" width="16.152" height="15.775" viewBox="0 0 16.152 15.775">
  <g id="Group_41" data-name="Group 41" transform="translate(-1651.833 -478.002)">
    <g id="Group_40" data-name="Group 40">
      <path id="Path_26" data-name="Path 26" d="M1655.817,484.516l3.392,3.554v-9.4a.673.673,0,0,1,1.346,0V488.1l3.472-3.581a.667.667,0,1,1,.97.916l-4.631,4.791h0c-.027.027-.054.054-.081.054l-.026.027a.619.619,0,0,1-.377.108h-.135c-.027,0-.081-.027-.108-.027a.026.026,0,0,1-.027-.027c-.026-.027-.053-.027-.08-.054a.026.026,0,0,1-.027-.027c-.027-.027-.054-.027-.054-.054h0l-4.6-4.791a.667.667,0,1,1,.969-.916Zm-3.311,9.261h14.806a.673.673,0,0,0,0-1.346h-14.806a.673.673,0,0,0,0,1.346Z" fill="#969696"/>
    </g>
  </g>
</svg>
