<svg xmlns="http://www.w3.org/2000/svg" width="12.619" height="12.619" viewBox="0 0 12.619 12.619">
  <g id="Group_87" data-name="Group 87" transform="translate(-1501.769 -526.846)">
    <path id="Path_55" data-name="Path 55" d="M1512.05,526.846a2.322,2.322,0,0,0-1.653.684l-4.238,4.24a3.838,3.838,0,0,0-1.133,2.735v1.7h1.7a3.845,3.845,0,0,0,2.734-1.134l4.241-4.238a2.338,2.338,0,0,0-1.654-3.991Zm.789,3.126-4.237,4.24a2.633,2.633,0,0,1-1.873.776h-.482v-.483a2.626,2.626,0,0,1,.775-1.87l4.24-4.24a1.117,1.117,0,0,1,1.579,1.579Z" fill="#05d672"/>
    <path id="Path_56" data-name="Path 56" d="M1504.008,539.465h7.327a2.238,2.238,0,0,0,2.239-2.239V533.97h-1.221v3.256a1.018,1.018,0,0,1-1.018,1.018h-7.327a1.018,1.018,0,0,1-1.018-1.018V529.9a1.017,1.017,0,0,1,1.018-1.017h3.256V527.66h-3.256a2.239,2.239,0,0,0-2.239,2.239v7.327A2.238,2.238,0,0,0,1504.008,539.465Z" fill="#05d672"/>
  </g>
</svg>
