<svg xmlns="http://www.w3.org/2000/svg" width="22.022" height="21.459" viewBox="0 0 22.022 21.459">
  <path id="Path_62" data-name="Path 62" d="M1362.714,325.6a1.437,1.437,0,0,1-.538-.122,1.258,1.258,0,0,1-.734-1.15v-8.32l-8.271-8.246a1.26,1.26,0,0,1-.367-.9v-1.444a1.263,1.263,0,0,1,1.273-1.272h19.477a1.263,1.263,0,0,1,1.272,1.272v1.444a1.256,1.256,0,0,1-.367.9l-8.27,8.246v6.386a1.3,1.3,0,0,1-.441.955l-2.2,1.908A1.251,1.251,0,0,1,1362.714,325.6Zm-8.539-18.792,8.27,8.27a1.257,1.257,0,0,1,.367.906v8.1l1.982-1.713v-6.411a1.254,1.254,0,0,1,.367-.905l8.271-8.271v-1.3h-19.257Z" transform="translate(-1352.804 -304.141)" fill="#969696"/>
</svg>
