<svg xmlns="http://www.w3.org/2000/svg" width="18.974" height="18.974" viewBox="0 0 18.974 18.974">
  <g id="Group_81" data-name="Group 81" transform="translate(-834.155 -277.394)">
    <g id="Group_80" data-name="Group 80">
      <g id="Group_79" data-name="Group 79">
        <path id="Path_55" data-name="Path 55" d="M843.642,277.394a9.487,9.487,0,1,0,9.487,9.487A9.5,9.5,0,0,0,843.642,277.394Zm0,16.8a7.31,7.31,0,1,1,7.31-7.31A7.314,7.314,0,0,1,843.642,294.191Z" fill="#05d672"/>
        <path id="Path_56" data-name="Path 56" d="M847.357,285.463h-2.3v-2.3a.536.536,0,0,0-.539-.539h-1.758a.537.537,0,0,0-.539.539v2.277h-2.3a.537.537,0,0,0-.539.539v1.758a.537.537,0,0,0,.539.539H842.2v2.277a.537.537,0,0,0,.539.539H844.5a.537.537,0,0,0,.539-.539V288.3h2.277a.538.538,0,0,0,.54-.539V286A.483.483,0,0,0,847.357,285.463Z" fill="#05d672"/>
      </g>
    </g>
  </g>
</svg>
