<svg xmlns="http://www.w3.org/2000/svg" width="14.253" height="14.253" viewBox="0 0 14.253 14.253">
  <g id="Group_76" data-name="Group 76" transform="translate(-1500.437 -485.064)">
    <g id="Group_75" data-name="Group 75">
      <path id="Path_43" data-name="Path 43" d="M1507.226,491.965h-3.263a.225.225,0,0,0-.225.225h0a.225.225,0,0,0,.225.225h3.151a.226.226,0,0,1,.225.226v3.15h0a.225.225,0,0,0,.225.225h0a.225.225,0,0,0,.225-.225v-3.15h0a.225.225,0,0,1,.225-.226h3.15a.224.224,0,0,0,.225-.225h0a.225.225,0,0,0-.225-.225h-3.15a.224.224,0,0,1-.225-.225v-3.15h0a.225.225,0,0,0-.225-.225h0a.224.224,0,0,0-.225.225v3.263h0A.113.113,0,0,1,1507.226,491.965Z" fill="#05d672" stroke="#05d672" stroke-miterlimit="10" stroke-width="0.75" fill-rule="evenodd"/>
      <path id="Path_44" data-name="Path 44" d="M1507.564,498.492a6.3,6.3,0,1,0-6.3-6.3A6.3,6.3,0,0,0,1507.564,498.492Zm0,.45a6.751,6.751,0,1,1,6.751-6.752A6.752,6.752,0,0,1,1507.564,498.942Z" fill="#05d672" stroke="#05d672" stroke-miterlimit="10" stroke-width="0.75"/>
    </g>
  </g>
</svg>
