<svg xmlns="http://www.w3.org/2000/svg" width="22.218" height="22.517" viewBox="0 0 22.218 22.517">
  <g id="Group_69" data-name="Group 69" transform="translate(-1576.956 -246.189)">
    <g id="Group_68" data-name="Group 68">
      <path id="Path_38" data-name="Path 38" d="M1598.764,253.764l-2.219-3.732a.961.961,0,0,0-1.3-.406l-.028.015-2.229,1.017a9.382,9.382,0,0,0-1.495-.865l-.223-2.476v-.053a1.048,1.048,0,0,0-1-.862h-4.347a1.017,1.017,0,0,0-1.017.936l-.223,2.455a8.538,8.538,0,0,0-1.505.862l-2.23-1.024h-.023a1.036,1.036,0,0,0-1.291.429l-2.163,3.7a1.047,1.047,0,0,0,.292,1.383l2.019,1.434a6.026,6.026,0,0,0,0,1.738l-2.138,1.449a1.042,1.042,0,0,0-.285,1.368l2.171,3.737a1.055,1.055,0,0,0,.574.46.933.933,0,0,0,.763-.082l2.229-1.016a9.386,9.386,0,0,0,1.495.866l.226,2.476v.054a1.047,1.047,0,0,0,1,.861h4.339a1.017,1.017,0,0,0,1.017-.932l.224-2.459a8.57,8.57,0,0,0,1.5-.856l2.239,1.032h.023a1.038,1.038,0,0,0,1.3-.422l2.158-3.714a1.045,1.045,0,0,0-.28-1.373l-1.878-1.431a6.1,6.1,0,0,0,0-1.759l2.033-1.441A1.045,1.045,0,0,0,1598.764,253.764Zm-.885.552-2.521,1.792.043.307a5.657,5.657,0,0,1,0,2.075l-.043.3,2.369,1.8a.047.047,0,0,1,.018.043l-2.171,3.716h-.031l-2.8-1.271-.254.2a7.446,7.446,0,0,1-1.8,1.035l-.28.119-.279,3.066h-4.322a.086.086,0,0,1-.02-.033l-.252-3.043-.274-.119a8.547,8.547,0,0,1-1.81-1.048l-.254-.183-2.8,1.287h0l-2.165-3.732v-.026l2.371-1.616.255-.183-.046-.313a6.987,6.987,0,0,1-.089-1.03,7.074,7.074,0,0,1,.1-1.037l.044-.307-2.512-1.78a.047.047,0,0,1-.018-.043l2.161-3.716a.051.051,0,0,1,.03,0l2.8,1.283.254-.2a7.409,7.409,0,0,1,1.8-1.034l.279-.12.28-3.065h4.321a.085.085,0,0,1,.021.035l.277,3.035.279.12a8.558,8.558,0,0,1,1.81,1.05l.255.18,2.8-1.286h0l2.219,3.732A.1.1,0,0,1,1597.879,254.316Z" fill="#006bff" stroke="#006bff" stroke-miterlimit="10" stroke-width="0.427"/>
      <path id="Path_39" data-name="Path 39" d="M1588.067,253.594a3.859,3.859,0,1,0,3.859,3.858,3.813,3.813,0,0,0-3.767-3.858Zm0,6.7a2.842,2.842,0,1,1,2.842-2.842h0a2.811,2.811,0,0,1-2.781,2.842C1588.108,260.3,1588.087,260.3,1588.067,260.294Z" fill="#006bff" stroke="#006bff" stroke-miterlimit="10" stroke-width="0.427"/>
    </g>
  </g>
</svg>
