<svg xmlns="http://www.w3.org/2000/svg" width="217.612" height="33.572" viewBox="0 0 217.612 33.572">
  <g id="Group_9" data-name="Group 9" transform="translate(-64.768 -61.583)">
    <path id="Path_2" data-name="Path 2" d="M282.38,88.445a5.853,5.853,0,1,1-5.852-5.852,5.852,5.852,0,0,1,5.852,5.852" fill="#006bff"/>
    <g id="Group_5" data-name="Group 5">
      <path id="Path_3" data-name="Path 3" d="M137.756,94.451H130.4L120.83,83.479h-5.954V94.451h-6.189V61.583c5.2,0,10.409.047,15.613.047,7.736.047,11.816,5.2,11.816,10.878,0,4.5-2.063,9.049-8.3,10.315l9.939,11.206ZM114.876,67.4V77.9H124.3c3.938,0,5.626-2.626,5.626-5.251S128.192,67.4,124.3,67.4Z" fill="#05d672"/>
    </g>
    <g id="Group_6" data-name="Group 6">
      <path id="Path_4" data-name="Path 4" d="M154.94,71.336h6.846v.187l-7.6,11.206,8.065,11.581v.141h-6.846l-5.017-7.736-5.017,7.736H138.53V94.31l8.064-11.581L139,71.523v-.187h6.845l4.548,7.83Z" fill="#05d672"/>
    </g>
    <g id="Group_7" data-name="Group 7">
      <path id="Path_5" data-name="Path 5" d="M193.176,77.759c.14,8.3-4.923,16.692-16.411,16.692H163.871V61.63h12.894C188.018,61.63,193.035,69.648,193.176,77.759ZM170.014,88.5h6.751c7.455,0,10.41-5.44,10.269-10.785-.141-5.111-3.142-10.221-10.269-10.221h-6.751Z" fill="#05d672"/>
      <path id="Path_6" data-name="Path 6" d="M215.633,71.336h5.486V94.451h-5.392l-.281-3.376c-1.313,2.72-4.924,4.033-7.5,4.08-6.845.046-11.91-4.173-11.91-12.285,0-7.971,5.3-12.144,12.05-12.1,3.1,0,6.049,1.453,7.362,3.751ZM201.754,82.87A6.622,6.622,0,0,0,208.6,89.9c9,0,9-14.019,0-14.019A6.582,6.582,0,0,0,201.754,82.87Z" fill="#05d672"/>
      <path id="Path_7" data-name="Path 7" d="M233.027,64.818v6.565H239.4v4.923H232.98v9.987c0,2.2,1.219,3.282,3,3.282a6.533,6.533,0,0,0,2.766-.7l1.6,4.876a12.793,12.793,0,0,1-4.736.984c-5.017.188-8.3-2.672-8.3-8.439V76.306h-4.314V71.383h4.314V65.428Z" fill="#05d672"/>
      <path id="Path_8" data-name="Path 8" d="M262,71.336h5.486V94.451H262.1l-.281-3.376c-1.313,2.72-4.924,4.033-7.5,4.08-6.845.046-11.91-4.173-11.91-12.285,0-7.971,5.3-12.144,12.05-12.1,3.1,0,6.049,1.453,7.362,3.751ZM248.123,82.87a6.622,6.622,0,0,0,6.846,7.033c9,0,9-14.019,0-14.019A6.582,6.582,0,0,0,248.123,82.87Z" fill="#05d672"/>
    </g>
    <g id="Group_8" data-name="Group 8">
      <path id="Path_9" data-name="Path 9" d="M69.993,80.8H64.768V77.974H78.326V80.8H73.1V94.452H69.993Z" fill="#05d672"/>
      <path id="Path_10" data-name="Path 10" d="M82.871,77.974v6.45A4.282,4.282,0,0,1,86.5,82.682c3.3,0,4.756,2.236,4.756,5.649v6.121H88.378v-6.1c0-2.119-1.106-3.013-2.636-3.013a2.974,2.974,0,0,0-2.871,3.178v5.932H80V77.974Z" fill="#05d672"/>
      <path id="Path_11" data-name="Path 11" d="M96.124,89.673c.188,1.436,1.435,2.472,3.46,2.472a4.792,4.792,0,0,0,3.108-1.083l1.835,1.813a7.129,7.129,0,0,1-4.99,1.883c-4,0-6.379-2.472-6.379-6.191a5.807,5.807,0,0,1,6.167-6.073c3.884,0,6.309,2.4,5.861,7.179Zm6.308-2.377c-.188-1.506-1.365-2.26-3.013-2.26a3.125,3.125,0,0,0-3.248,2.26Z" fill="#05d672"/>
    </g>
  </g>
</svg>
