<?xml version="1.0" encoding="utf-8"?>
<!-- Generator: Adobe Illustrator 25.1.0, SVG Export Plug-In . SVG Version: 6.00 Build 0)  -->
<svg version="1.1" id="Layer_1" xmlns="http://www.w3.org/2000/svg" xmlns:xlink="http://www.w3.org/1999/xlink" x="0px" y="0px"
	 viewBox="0 0 395.3 109.2" style="enable-background:new 0 0 395.3 109.2;" xml:space="preserve">
<style type="text/css">
	.st0{fill:#F5F5FA;}
	.st1{fill:#FFFFFF;}
	.st2{fill:#006BFF;}
	.st3{fill:#05D672;}
	.st4{fill-rule:evenodd;clip-rule:evenodd;fill:#969696;}
	.st5{fill-rule:evenodd;clip-rule:evenodd;fill:#FF0E2C;}
	.st6{fill:#969696;}
	.st7{clip-path:url(#SVGID_2_);}
	.st8{fill:#FFFFFF;stroke:#D0D2D3;stroke-width:0.5637;stroke-miterlimit:10;}
	.st9{opacity:0.5;fill:#006BFF;}
	.st10{fill:none;stroke:#F5F5FA;stroke-width:1.5;stroke-linecap:round;stroke-linejoin:round;stroke-miterlimit:10;}
	.st11{fill:none;stroke:#006BFF;stroke-miterlimit:10;}
	.st12{fill:#F5F6F7;}
	.st13{clip-path:url(#SVGID_4_);}
	.st14{clip-path:url(#SVGID_6_);fill:#05D672;}
	.st15{fill:none;stroke:#666666;stroke-width:0.25;stroke-miterlimit:10;}
	.st16{fill:none;stroke:#969696;stroke-miterlimit:10;}
	.st17{opacity:0.5;fill:#FFFFFF;}
	.st18{fill:#FFFFFF;stroke:#D0D2D3;stroke-width:0.4561;stroke-miterlimit:10;}
	.st19{fill:#FFFFFF;stroke:#D0D2D3;stroke-width:0.75;stroke-miterlimit:10;}
	.st20{opacity:0.2;fill:#CCCCCC;}
	.st21{fill:#E0E0E0;}
	.st22{fill:#FFFFFF;stroke:#D0D2D3;stroke-width:0.467;stroke-miterlimit:10;}
	.st23{clip-path:url(#SVGID_8_);}
	.st24{opacity:0.5;fill:#231F20;}
	.st25{fill:#FFFFFF;stroke:#D0D2D3;stroke-width:0.3658;stroke-miterlimit:10;}
	.st26{clip-path:url(#SVGID_10_);}
	.st27{fill:none;stroke:#D1D3D4;stroke-width:0.5;stroke-miterlimit:10;}
	.st28{fill:#B5B5B5;}
	.st29{clip-path:url(#SVGID_12_);}
	.st30{clip-path:url(#SVGID_14_);}
	.st31{clip-path:url(#SVGID_16_);}
	.st32{clip-path:url(#SVGID_18_);}
	.st33{clip-path:url(#SVGID_20_);}
	.st34{clip-path:url(#SVGID_22_);}
	.st35{clip-path:url(#SVGID_24_);}
	.st36{clip-path:url(#SVGID_26_);}
	.st37{fill:none;stroke:#D0D2D3;stroke-width:0.472;stroke-miterlimit:10;}
	.st38{opacity:0.1;fill:#05D672;}
	.st39{clip-path:url(#SVGID_28_);}
	.st40{clip-path:url(#SVGID_30_);}
	.st41{fill:#05D672;stroke:#05D672;stroke-width:0.4523;stroke-miterlimit:10;}
	.st42{opacity:7.000000e-02;fill:#05D672;}
	.st43{fill:#05D672;stroke:#05D672;stroke-width:0.3666;stroke-miterlimit:10;}
	.st44{fill:#FFFFFF;stroke:#D0D2D3;stroke-width:0.3637;stroke-miterlimit:10;}
	.st45{clip-path:url(#SVGID_32_);}
	.st46{opacity:0.1;fill:#CCCCCC;}
	.st47{fill:none;stroke:#05D672;stroke-width:2;stroke-miterlimit:10;}
	.st48{clip-path:url(#SVGID_34_);}
	.st49{fill:#FFFFFF;stroke:#666666;stroke-width:0.25;stroke-miterlimit:10;}
	.st50{clip-path:url(#SVGID_36_);}
	.st51{clip-path:url(#SVGID_38_);}
	.st52{clip-path:url(#SVGID_40_);}
	.st53{clip-path:url(#SVGID_42_);}
	.st54{clip-path:url(#SVGID_44_);}
	.st55{clip-path:url(#SVGID_46_);}
	.st56{fill:#606060;}
	.st57{font-family:'Montserrat-Medium';}
	.st58{font-size:35.3954px;}
	.st59{fill:none;stroke:#606060;stroke-width:0.5;stroke-miterlimit:10;}
</style>
<g>
	<g>
		<path class="st2" d="M393.6,48.6c0,5.8-4.7,10.6-10.6,10.6c-5.8,0-10.6-4.7-10.6-10.6c0-5.8,4.7-10.6,10.6-10.6
			C388.8,38,393.6,42.7,393.6,48.6"/>
		<g>
			<path class="st3" d="M132,59.4h-13.3l-17.3-19.8H90.6v19.8H79.4V0c9.4,0,18.8,0.1,28.2,0.1c14,0.1,21.4,9.4,21.4,19.7
				c0,8.1-3.7,16.4-15,18.7l18,20.3V59.4z M90.6,10.5v19h17c7.1,0,10.2-4.7,10.2-9.5s-3.1-9.5-10.2-9.5H90.6z"/>
		</g>
		<g>
			<path class="st3" d="M163.1,17.6h12.4V18l-13.7,20.3l14.6,20.9v0.3h-12.4l-9.1-14l-9.1,14h-12.4v-0.3L148,38.2L134.3,18v-0.3
				h12.4l8.2,14.2L163.1,17.6z"/>
		</g>
		<g>
			<path class="st3" d="M232.2,29.3c0.3,15-8.9,30.2-29.7,30.2c-7.3,0-16,0-23.3,0V0.1c7.3,0,16,0,23.3,0
				C222.9,0.1,232,14.6,232.2,29.3z M190.3,48.7h12.2c13.5,0,18.8-9.8,18.6-19.5c-0.3-9.2-5.7-18.5-18.6-18.5h-12.2V48.7z"/>
			<path class="st3" d="M272.8,17.6h9.9v41.8H273l-0.5-6.1c-2.4,4.9-8.9,7.3-13.6,7.4c-12.4,0.1-21.5-7.5-21.5-22.2
				c0-14.4,9.6-22,21.8-21.9c5.6,0,10.9,2.6,13.3,6.8L272.8,17.6z M247.7,38.5c0,8,5.5,12.7,12.4,12.7c16.3,0,16.3-25.4,0-25.4
				C253.3,25.9,247.7,30.5,247.7,38.5z"/>
			<path class="st3" d="M304.3,5.9v11.9h11.5v8.9h-11.6v18.1c0,4,2.2,5.9,5.4,5.9c1.6,0,3.5-0.5,5-1.3l2.9,8.8
				c-3,1.2-5.4,1.7-8.6,1.8c-9.1,0.3-15-4.8-15-15.3V26.6h-7.8v-8.9h7.8V7L304.3,5.9z"/>
			<path class="st3" d="M356.7,17.6h9.9v41.8h-9.8l-0.5-6.1c-2.4,4.9-8.9,7.3-13.6,7.4c-12.4,0.1-21.5-7.5-21.5-22.2
				c0-14.4,9.6-22,21.8-21.9c5.6,0,10.9,2.6,13.3,6.8L356.7,17.6z M331.6,38.5c0,8,5.5,12.7,12.4,12.7c16.3,0,16.3-25.4,0-25.4
				C337.1,25.9,331.6,30.5,331.6,38.5z"/>
		</g>
		<g>
			<path class="st3" d="M9.5,34.8H0v-5.1c8.6,0,15.9,0,24.5,0v5.1h-9.5v24.7H9.5V34.8z"/>
			<path class="st3" d="M32.7,29.6v11.7c1.9-2.4,4.2-3.1,6.6-3.1c6,0,8.6,4,8.6,10.2v11.1h-5.2v-11c0-3.8-2-5.4-4.8-5.4
				c-3.1,0-5.2,2.6-5.2,5.7v10.7h-5.2V29.6H32.7z"/>
			<path class="st3" d="M56.7,50.8c0.3,2.6,2.6,4.5,6.3,4.5c1.9,0,4.4-0.7,5.6-2l3.3,3.3c-2.2,2.3-5.8,3.4-9,3.4
				c-7.2,0-11.5-4.5-11.5-11.2c0-6.4,4.3-11,11.2-11c7,0,11.4,4.3,10.6,13H56.7z M68.1,46.5c-0.3-2.7-2.5-4.1-5.4-4.1
				c-2.8,0-5.1,1.4-5.9,4.1H68.1z"/>
		</g>
	</g>
	<text transform="matrix(1 0 0 1 260.0854 99.9238)" class="st56 st57 st58">partner</text>
</g>
</svg>
